<?xml version="1.0" encoding="utf-8"?>
<!-- Generator: Adobe Illustrator 22.0.0, SVG Export Plug-In . SVG Version: 6.00 Build 0)  -->
<svg version="1.1" id="Vrstva_1" xmlns="http://www.w3.org/2000/svg" xmlns:xlink="http://www.w3.org/1999/xlink" x="0px" y="0px"
	 viewBox="0 0 1828.2 1083.4" style="enable-background:new 0 0 1828.2 1083.4;" xml:space="preserve">
<style type="text/css">
	.st0{fill:#878787;}
	.st1{font-family:'Montserrat-Regular';}
	.st2{font-size:44.9412px;}
	.st3{fill:none;stroke:#000000;stroke-width:2.5;stroke-miterlimit:10;}
	.st4{fill:#FFFFFF;}
	.st5{fill:none;stroke:#3AAA35;stroke-width:2.5;stroke-miterlimit:10;}
	.st6{fill:#3AAA35;}
</style>
<rect y="91.1" class="st0" width="1828.2" height="366"/>
<text transform="matrix(1 0 0 1 284.8148 570.8099)" class="st1 st2">moje město</text>
<polyline class="st3" points="272.6,559.2 272.6,520.6 305.5,520.6 "/>
<polyline class="st3" points="567.3,559.2 567.3,592.1 529.5,592.1 511.1,573.7 495.8,589.1 "/>
<polyline class="st3" points="305.5,533.9 305.5,500.9 367,500.9 367,530.8 "/>
<rect x="311.7" y="507.2" width="6.3" height="6.3"/>
<rect x="322.4" y="507.2" width="6.3" height="6.3"/>
<rect x="333.1" y="507.2" width="6.3" height="6.3"/>
<rect x="343.8" y="507.2" width="6.3" height="6.3"/>
<rect x="354.5" y="507.2" width="6.3" height="6.3"/>
<rect x="311.7" y="517.4" width="6.3" height="6.3"/>
<rect x="322.4" y="517.4" width="6.3" height="6.3"/>
<rect x="333.1" y="517.4" width="6.3" height="6.3"/>
<rect x="311.7" y="527.6" width="6.3" height="6.3"/>
<rect x="322.4" y="527.6" width="6.3" height="6.3"/>
<rect x="333.1" y="527.6" width="6.3" height="6.3"/>
<rect x="343.8" y="517.4" width="6.3" height="6.3"/>
<polyline class="st3" points="466.6,598.9 486,579.5 499.7,593.2 "/>
<polyline class="st3" points="471.8,593.7 471.8,612.4 483.2,612.4 "/>
<g>
	<path class="st4" d="M325.7,352c1.7,1.7,2.5,4.2,2.5,7.6v13.7h-3.2v-13.4c0-2.5-0.6-4.3-1.8-5.6c-1.2-1.3-2.9-1.9-5-1.9
		c-2.5,0-4.4,0.8-5.8,2.3c-1.4,1.5-2.1,3.6-2.1,6.3v12.4h-3.2v-13.4c0-2.5-0.6-4.3-1.8-5.6c-1.2-1.3-2.9-1.9-5.1-1.9
		c-2.4,0-4.4,0.8-5.8,2.3c-1.4,1.5-2.1,3.6-2.1,6.3v12.4h-3.2v-23.6h3.1v4.3c0.8-1.4,2-2.5,3.5-3.3c1.5-0.8,3.2-1.2,5.2-1.2
		c2,0,3.7,0.4,5.1,1.3c1.5,0.8,2.5,2.1,3.3,3.7c0.9-1.6,2.1-2.8,3.8-3.7c1.6-0.9,3.5-1.3,5.6-1.3C321.7,349.4,324,350.3,325.7,352z"
		/>
	<path class="st4" d="M340.5,371.9c-1.8-1-3.3-2.5-4.3-4.3c-1-1.8-1.6-3.9-1.6-6.2c0-2.3,0.5-4.4,1.6-6.2c1-1.8,2.5-3.3,4.3-4.3
		c1.8-1,3.9-1.5,6.2-1.5c2.3,0,4.3,0.5,6.2,1.5c1.8,1,3.3,2.4,4.3,4.3s1.6,3.9,1.6,6.2c0,2.3-0.5,4.4-1.6,6.2
		c-1,1.8-2.5,3.3-4.3,4.3c-1.8,1-3.9,1.6-6.2,1.6C344.4,373.5,342.4,372.9,340.5,371.9z M351.2,369.5c1.3-0.8,2.4-1.8,3.1-3.3
		c0.7-1.4,1.1-3,1.1-4.8s-0.4-3.4-1.1-4.8c-0.7-1.4-1.8-2.5-3.1-3.3c-1.3-0.8-2.8-1.1-4.5-1.1c-1.7,0-3.2,0.4-4.5,1.1
		c-1.3,0.8-2.4,1.8-3.1,3.3c-0.8,1.4-1.1,3-1.1,4.8s0.4,3.4,1.1,4.8c0.8,1.4,1.8,2.5,3.1,3.3c1.3,0.8,2.8,1.1,4.5,1.1
		C348.4,370.6,349.9,370.3,351.2,369.5z"/>
	<path class="st4" d="M358.9,381.8c-0.9-0.3-1.6-0.6-2.2-1.1l1.1-2.4c0.9,0.8,2.2,1.2,3.7,1.2c1.3,0,2.2-0.4,2.9-1.1
		c0.7-0.7,1-1.9,1-3.3v-25.4h3.2V375c0,2.2-0.6,4-1.8,5.3c-1.2,1.3-2.9,1.9-5.1,1.9C360.7,382.2,359.8,382.1,358.9,381.8z
		 M365.4,343.7c-0.4-0.4-0.7-1-0.7-1.6c0-0.6,0.2-1.1,0.7-1.6c0.4-0.4,1-0.7,1.7-0.7s1.2,0.2,1.7,0.7c0.4,0.4,0.7,1,0.7,1.6
		c0,0.7-0.2,1.2-0.7,1.7c-0.4,0.4-1,0.7-1.7,0.7S365.8,344.2,365.4,343.7z"/>
	<path class="st4" d="M398.1,362.4h-19.8c0.2,2.5,1.1,4.4,2.8,6c1.7,1.5,3.9,2.3,6.5,2.3c1.5,0,2.8-0.3,4-0.8
		c1.2-0.5,2.3-1.3,3.2-2.3l1.8,2.1c-1,1.3-2.4,2.2-3.9,2.9c-1.6,0.7-3.3,1-5.2,1c-2.4,0-4.6-0.5-6.4-1.6c-1.9-1-3.3-2.5-4.4-4.3
		c-1-1.8-1.6-3.9-1.6-6.2c0-2.3,0.5-4.4,1.5-6.2c1-1.8,2.4-3.3,4.1-4.3c1.8-1,3.7-1.5,5.9-1.5c2.2,0,4.2,0.5,5.9,1.5
		c1.7,1,3.1,2.4,4.1,4.2c1,1.8,1.5,3.9,1.5,6.2L398.1,362.4z M381,354.3c-1.5,1.5-2.4,3.3-2.6,5.7h16.8c-0.2-2.3-1.1-4.2-2.6-5.7
		c-1.5-1.5-3.5-2.2-5.8-2.2C384.4,352.2,382.5,352.9,381,354.3z"/>
	<path class="st4" d="M452.9,352c1.7,1.7,2.5,4.2,2.5,7.6v13.7h-3.2v-13.4c0-2.5-0.6-4.3-1.8-5.6c-1.2-1.3-2.9-1.9-5-1.9
		c-2.5,0-4.4,0.8-5.8,2.3c-1.4,1.5-2.1,3.6-2.1,6.3v12.4h-3.2v-13.4c0-2.5-0.6-4.3-1.8-5.6c-1.2-1.3-2.9-1.9-5.1-1.9
		c-2.4,0-4.4,0.8-5.8,2.3c-1.4,1.5-2.1,3.6-2.1,6.3v12.4h-3.2v-23.6h3.1v4.3c0.8-1.4,2-2.5,3.5-3.3c1.5-0.8,3.2-1.2,5.2-1.2
		c2,0,3.7,0.4,5.1,1.3c1.5,0.8,2.5,2.1,3.3,3.7c0.9-1.6,2.1-2.8,3.8-3.7c1.6-0.9,3.5-1.3,5.6-1.3C448.9,349.4,451.2,350.3,452.9,352
		z"/>
	<path class="st4" d="M484.8,362.4H465c0.2,2.5,1.1,4.4,2.8,6c1.7,1.5,3.9,2.3,6.5,2.3c1.5,0,2.8-0.3,4-0.8c1.2-0.5,2.3-1.3,3.2-2.3
		l1.8,2.1c-1,1.3-2.4,2.2-3.9,2.9c-1.6,0.7-3.3,1-5.2,1c-2.4,0-4.6-0.5-6.4-1.6c-1.9-1-3.3-2.5-4.4-4.3c-1-1.8-1.6-3.9-1.6-6.2
		c0-2.3,0.5-4.4,1.5-6.2c1-1.8,2.4-3.3,4.1-4.3c1.8-1,3.7-1.5,5.9-1.5s4.1,0.5,5.9,1.5c1.7,1,3.1,2.4,4.1,4.2c1,1.8,1.5,3.9,1.5,6.2
		L484.8,362.4z M467.7,354.3c-1.5,1.5-2.4,3.3-2.6,5.7h16.8c-0.2-2.3-1.1-4.2-2.6-5.7c-1.5-1.5-3.5-2.2-5.8-2.2
		C471.1,352.2,469.2,352.9,467.7,354.3z M480.8,340.3l-5.8,5.6h-3.2l-5.8-5.6h3l4.4,3.7l4.4-3.7H480.8z"/>
	<path class="st4" d="M492.2,372.6c-1.8-0.6-3.1-1.3-4.1-2.1l1.4-2.5c1,0.8,2.2,1.4,3.7,1.9c1.5,0.5,3.1,0.7,4.7,0.7
		c2.2,0,3.8-0.3,4.8-1c1-0.7,1.6-1.6,1.6-2.9c0-0.9-0.3-1.6-0.9-2c-0.6-0.5-1.3-0.9-2.2-1.1c-0.9-0.3-2-0.5-3.5-0.7
		c-1.9-0.4-3.5-0.7-4.6-1.1c-1.2-0.4-2.2-1-3-1.9c-0.8-0.9-1.2-2.1-1.2-3.7c0-2,0.8-3.6,2.5-4.9c1.6-1.3,3.9-1.9,6.9-1.9
		c1.5,0,3.1,0.2,4.6,0.6c1.5,0.4,2.8,0.9,3.8,1.6l-1.4,2.6c-1.9-1.3-4.3-2-7-2c-2,0-3.6,0.4-4.6,1.1c-1,0.7-1.6,1.7-1.6,2.8
		c0,0.9,0.3,1.6,0.9,2.2c0.6,0.5,1.3,0.9,2.2,1.2c0.9,0.3,2.1,0.5,3.6,0.8c1.9,0.4,3.4,0.7,4.5,1.1c1.1,0.4,2.1,1,2.9,1.8
		c0.8,0.9,1.2,2.1,1.2,3.6c0,2.1-0.9,3.7-2.6,4.9c-1.7,1.2-4.1,1.8-7.2,1.8C495.8,373.5,493.9,373.2,492.2,372.6z"/>
	<path class="st4" d="M525.8,371.8c-0.6,0.5-1.3,1-2.2,1.2c-0.9,0.3-1.8,0.4-2.8,0.4c-2.2,0-3.9-0.6-5.1-1.8
		c-1.2-1.2-1.8-2.9-1.8-5.1v-14.3h-4.2v-2.7h4.2v-5.2h3.2v5.2h7.2v2.7h-7.2v14.1c0,1.4,0.4,2.5,1.1,3.2c0.7,0.7,1.7,1.1,3,1.1
		c0.7,0,1.3-0.1,1.9-0.3c0.6-0.2,1.1-0.5,1.6-0.9L525.8,371.8z"/>
	<path class="st4" d="M534.2,371.9c-1.8-1-3.3-2.5-4.3-4.3c-1-1.8-1.6-3.9-1.6-6.2c0-2.3,0.5-4.4,1.6-6.2c1-1.8,2.5-3.3,4.3-4.3
		c1.8-1,3.9-1.5,6.2-1.5s4.3,0.5,6.2,1.5c1.8,1,3.3,2.4,4.3,4.3s1.6,3.9,1.6,6.2c0,2.3-0.5,4.4-1.6,6.2c-1,1.8-2.5,3.3-4.3,4.3
		s-3.9,1.6-6.2,1.6S536.1,372.9,534.2,371.9z M544.9,369.5c1.3-0.8,2.4-1.8,3.1-3.3c0.7-1.4,1.1-3,1.1-4.8s-0.4-3.4-1.1-4.8
		c-0.7-1.4-1.8-2.5-3.1-3.3c-1.3-0.8-2.8-1.1-4.5-1.1s-3.2,0.4-4.5,1.1c-1.3,0.8-2.4,1.8-3.1,3.3c-0.8,1.4-1.1,3-1.1,4.8
		s0.4,3.4,1.1,4.8c0.8,1.4,1.8,2.5,3.1,3.3c1.3,0.8,2.8,1.1,4.5,1.1S543.6,370.3,544.9,369.5z"/>
</g>
<g>
	<polygon class="st4" points="274.1,361.6 271.1,361.6 271.1,321.5 305.5,321.5 305.5,324.5 274.1,324.5 	"/>
</g>
<g>
	<polygon class="st4" points="568.8,396 528.9,396 511.1,378.3 496.8,392.6 494.7,390.5 511.1,374.1 530.1,393.1 565.8,393.1 
		565.8,361.6 568.8,361.6 	"/>
</g>
<g>
	<polygon class="st4" points="307,336.4 304,336.4 304,301.8 368.5,301.8 368.5,333.2 365.5,333.2 365.5,304.8 307,304.8 	"/>
</g>
<g>
	<rect x="311.7" y="309.7" class="st4" width="6.3" height="6.3"/>
</g>
<g>
	<rect x="322.4" y="309.7" class="st4" width="6.3" height="6.3"/>
</g>
<g>
	<rect x="333.1" y="309.7" class="st4" width="6.3" height="6.3"/>
</g>
<g>
	<rect x="343.8" y="309.7" class="st4" width="6.3" height="6.3"/>
</g>
<g>
	<rect x="354.5" y="309.7" class="st4" width="6.3" height="6.3"/>
</g>
<g>
	<rect x="311.7" y="319.8" class="st4" width="6.3" height="6.3"/>
</g>
<g>
	<rect x="322.4" y="319.8" class="st4" width="6.3" height="6.3"/>
</g>
<g>
	<rect x="333.1" y="319.8" class="st4" width="6.3" height="6.3"/>
</g>
<g>
	<rect x="311.7" y="330" class="st4" width="6.3" height="6.3"/>
</g>
<g>
	<rect x="322.4" y="330" class="st4" width="6.3" height="6.3"/>
</g>
<g>
	<rect x="333.1" y="330" class="st4" width="6.3" height="6.3"/>
</g>
<g>
	<rect x="343.8" y="319.8" class="st4" width="6.3" height="6.3"/>
</g>
<g>
	<polygon class="st4" points="467.7,402.4 465.6,400.3 486,379.8 500.8,394.6 498.7,396.7 486,384 	"/>
</g>
<g>
	<polygon class="st4" points="483.2,416.3 470.3,416.3 470.3,396.2 473.3,396.2 473.3,413.3 483.2,413.3 	"/>
</g>
<text transform="matrix(1 0 0 1 284.8152 767.5447)" class="st1 st2">moje město</text>
<polyline class="st5" points="272.6,755.9 272.6,717.3 305.5,717.3 "/>
<polyline class="st5" points="567.3,755.9 567.3,788.9 529.5,788.9 511.1,770.5 495.8,785.8 "/>
<polyline class="st5" points="305.5,730.7 305.5,697.6 367,697.6 367,727.5 "/>
<rect x="311.7" y="704" class="st6" width="6.3" height="6.3"/>
<rect x="322.4" y="704" class="st6" width="6.3" height="6.3"/>
<rect x="333.1" y="704" class="st6" width="6.3" height="6.3"/>
<rect x="343.8" y="704" class="st6" width="6.3" height="6.3"/>
<rect x="354.5" y="704" class="st6" width="6.3" height="6.3"/>
<rect x="311.7" y="714.1" class="st6" width="6.3" height="6.3"/>
<rect x="322.4" y="714.1" class="st6" width="6.3" height="6.3"/>
<rect x="333.1" y="714.1" class="st6" width="6.3" height="6.3"/>
<rect x="311.7" y="724.3" class="st6" width="6.3" height="6.3"/>
<rect x="322.4" y="724.3" class="st6" width="6.3" height="6.3"/>
<rect x="333.1" y="724.3" class="st6" width="6.3" height="6.3"/>
<rect x="343.8" y="714.1" class="st6" width="6.3" height="6.3"/>
<polyline class="st5" points="466.6,795.7 486,776.2 499.7,789.9 "/>
<polyline class="st5" points="471.8,790.5 471.8,809.1 483.2,809.1 "/>
<g>
	<path d="M1052.9,549.6c1.7,1.7,2.5,4.2,2.5,7.5v13.7h-3.2v-13.4c0-2.5-0.6-4.3-1.8-5.6s-2.9-1.9-5-1.9c-2.5,0-4.4,0.8-5.8,2.3
		s-2.1,3.6-2.1,6.3v12.4h-3.2v-13.4c0-2.5-0.6-4.3-1.8-5.6s-2.9-1.9-5.1-1.9c-2.4,0-4.4,0.8-5.8,2.3s-2.1,3.6-2.1,6.3v12.4h-3.2
		v-23.6h3.1v4.3c0.8-1.4,2-2.5,3.5-3.3c1.5-0.8,3.2-1.2,5.2-1.2c2,0,3.7,0.4,5.1,1.3s2.5,2.1,3.3,3.7c0.9-1.6,2.1-2.8,3.8-3.7
		c1.6-0.9,3.5-1.3,5.6-1.3C1048.9,547,1051.2,547.8,1052.9,549.6z"/>
	<path d="M1067.7,569.5c-1.8-1-3.3-2.5-4.3-4.3c-1-1.8-1.6-3.9-1.6-6.2c0-2.3,0.5-4.4,1.6-6.2c1-1.8,2.5-3.2,4.3-4.3
		c1.8-1,3.9-1.5,6.2-1.5c2.3,0,4.3,0.5,6.2,1.5c1.8,1,3.3,2.4,4.3,4.3c1,1.8,1.6,3.9,1.6,6.2c0,2.3-0.5,4.4-1.6,6.2
		c-1,1.8-2.5,3.3-4.3,4.3c-1.8,1-3.9,1.6-6.2,1.6C1071.6,571,1069.6,570.5,1067.7,569.5z M1078.4,567.1c1.3-0.8,2.4-1.8,3.1-3.3
		c0.7-1.4,1.1-3,1.1-4.8s-0.4-3.4-1.1-4.8c-0.8-1.4-1.8-2.5-3.1-3.3c-1.3-0.8-2.8-1.1-4.5-1.1s-3.2,0.4-4.5,1.1
		c-1.3,0.8-2.4,1.9-3.1,3.3s-1.1,3-1.1,4.8s0.4,3.4,1.1,4.8s1.8,2.5,3.1,3.3c1.3,0.8,2.8,1.1,4.5,1.1S1077.1,567.8,1078.4,567.1z"/>
	<path d="M1086.1,579.4c-0.9-0.3-1.6-0.6-2.2-1.1l1.1-2.4c0.9,0.8,2.2,1.2,3.7,1.2c1.3,0,2.2-0.4,2.9-1.1c0.7-0.7,1-1.9,1-3.3v-25.4
		h3.2v25.4c0,2.2-0.6,4-1.8,5.3c-1.2,1.3-2.9,1.9-5.1,1.9C1087.9,579.8,1087,579.6,1086.1,579.4z M1092.6,541.3
		c-0.4-0.4-0.7-1-0.7-1.6c0-0.6,0.2-1.1,0.7-1.6c0.4-0.5,1-0.7,1.7-0.7c0.7,0,1.2,0.2,1.7,0.7c0.4,0.4,0.7,1,0.7,1.5
		c0,0.7-0.2,1.2-0.7,1.7c-0.5,0.4-1,0.7-1.7,0.7C1093.6,542,1093,541.7,1092.6,541.3z"/>
	<path d="M1125.3,560h-19.8c0.2,2.5,1.1,4.4,2.8,6c1.7,1.5,3.9,2.3,6.5,2.3c1.5,0,2.8-0.3,4-0.8s2.3-1.3,3.2-2.3l1.8,2.1
		c-1,1.3-2.4,2.2-3.9,2.9c-1.6,0.7-3.3,1-5.2,1c-2.4,0-4.6-0.5-6.4-1.6c-1.9-1-3.3-2.5-4.4-4.3c-1-1.8-1.6-3.9-1.6-6.2
		c0-2.3,0.5-4.4,1.5-6.2c1-1.8,2.4-3.2,4.1-4.3c1.8-1,3.7-1.5,5.9-1.5c2.2,0,4.1,0.5,5.9,1.5c1.7,1,3.1,2.4,4.1,4.2
		c1,1.8,1.5,3.9,1.5,6.2L1125.3,560z M1108.1,551.9c-1.5,1.5-2.4,3.3-2.6,5.7h16.8c-0.2-2.3-1.1-4.2-2.6-5.7
		c-1.5-1.5-3.5-2.2-5.8-2.2C1111.6,549.7,1109.7,550.5,1108.1,551.9z"/>
	<path d="M1180.1,549.6c1.7,1.7,2.5,4.2,2.5,7.5v13.7h-3.2v-13.4c0-2.5-0.6-4.3-1.8-5.6s-2.9-1.9-5-1.9c-2.5,0-4.4,0.8-5.8,2.3
		s-2.1,3.6-2.1,6.3v12.4h-3.2v-13.4c0-2.5-0.6-4.3-1.8-5.6s-2.9-1.9-5.1-1.9c-2.4,0-4.4,0.8-5.8,2.3s-2.1,3.6-2.1,6.3v12.4h-3.2
		v-23.6h3.1v4.3c0.8-1.4,2-2.5,3.5-3.3c1.5-0.8,3.2-1.2,5.2-1.2c2,0,3.7,0.4,5.1,1.3s2.5,2.1,3.3,3.7c0.9-1.6,2.1-2.8,3.8-3.7
		c1.6-0.9,3.5-1.3,5.6-1.3C1176.1,547,1178.4,547.8,1180.1,549.6z"/>
	<path d="M1212,560h-19.8c0.2,2.5,1.1,4.4,2.8,6c1.7,1.5,3.9,2.3,6.5,2.3c1.5,0,2.8-0.3,4-0.8s2.3-1.3,3.2-2.3l1.8,2.1
		c-1,1.3-2.4,2.2-3.9,2.9c-1.6,0.7-3.3,1-5.2,1c-2.4,0-4.6-0.5-6.4-1.6c-1.9-1-3.3-2.5-4.4-4.3c-1-1.8-1.6-3.9-1.6-6.2
		c0-2.3,0.5-4.4,1.5-6.2c1-1.8,2.4-3.2,4.1-4.3c1.8-1,3.7-1.5,5.9-1.5c2.2,0,4.1,0.5,5.9,1.5c1.7,1,3.1,2.4,4.1,4.2
		c1,1.8,1.5,3.9,1.5,6.2L1212,560z M1194.8,551.9c-1.5,1.5-2.4,3.3-2.6,5.7h16.8c-0.2-2.3-1.1-4.2-2.6-5.7c-1.5-1.5-3.5-2.2-5.8-2.2
		C1198.3,549.7,1196.4,550.5,1194.8,551.9z M1208,537.9l-5.8,5.6h-3.2l-5.8-5.6h3l4.4,3.7l4.4-3.7H1208z"/>
	<path d="M1219.4,570.2c-1.8-0.6-3.1-1.3-4.1-2.1l1.4-2.5c1,0.8,2.2,1.4,3.7,1.9c1.5,0.5,3.1,0.7,4.7,0.7c2.2,0,3.8-0.3,4.8-1
		c1-0.7,1.6-1.6,1.6-2.9c0-0.9-0.3-1.6-0.9-2s-1.3-0.9-2.2-1.1s-2-0.5-3.5-0.7c-1.9-0.4-3.5-0.7-4.6-1.1c-1.2-0.4-2.2-1-3-1.9
		c-0.8-0.9-1.2-2.1-1.2-3.7c0-2,0.8-3.6,2.5-4.9c1.6-1.3,3.9-1.9,6.9-1.9c1.5,0,3.1,0.2,4.6,0.6s2.8,0.9,3.8,1.6l-1.4,2.6
		c-1.9-1.3-4.3-2-7-2c-2,0-3.6,0.4-4.6,1.1s-1.6,1.7-1.6,2.8c0,0.9,0.3,1.6,0.9,2.2c0.6,0.5,1.3,0.9,2.2,1.2
		c0.9,0.3,2.1,0.5,3.6,0.8c1.9,0.4,3.4,0.7,4.5,1.1s2.1,1,2.9,1.8c0.8,0.9,1.2,2.1,1.2,3.6c0,2.1-0.9,3.7-2.6,4.9
		c-1.7,1.2-4.1,1.8-7.2,1.8C1223,571,1221.1,570.8,1219.4,570.2z"/>
	<path d="M1253,569.4c-0.6,0.5-1.3,1-2.2,1.2s-1.8,0.4-2.8,0.4c-2.2,0-3.9-0.6-5.1-1.8c-1.2-1.2-1.8-2.9-1.8-5.1v-14.3h-4.2v-2.7
		h4.2V542h3.2v5.2h7.2v2.7h-7.2V564c0,1.4,0.4,2.5,1.1,3.2c0.7,0.7,1.7,1.1,3,1.1c0.7,0,1.3-0.1,1.9-0.3s1.1-0.5,1.6-0.9L1253,569.4
		z"/>
	<path d="M1261.4,569.5c-1.8-1-3.3-2.5-4.3-4.3c-1-1.8-1.6-3.9-1.6-6.2c0-2.3,0.5-4.4,1.6-6.2c1-1.8,2.5-3.2,4.3-4.3
		c1.8-1,3.9-1.5,6.2-1.5c2.3,0,4.3,0.5,6.2,1.5c1.8,1,3.3,2.4,4.3,4.3c1,1.8,1.6,3.9,1.6,6.2c0,2.3-0.5,4.4-1.6,6.2
		c-1,1.8-2.5,3.3-4.3,4.3c-1.8,1-3.9,1.6-6.2,1.6C1265.3,571,1263.2,570.5,1261.4,569.5z M1272.1,567.1c1.3-0.8,2.4-1.8,3.1-3.3
		c0.7-1.4,1.1-3,1.1-4.8s-0.4-3.4-1.1-4.8c-0.8-1.4-1.8-2.5-3.1-3.3c-1.3-0.8-2.8-1.1-4.5-1.1s-3.2,0.4-4.5,1.1
		c-1.3,0.8-2.4,1.9-3.1,3.3s-1.1,3-1.1,4.8s0.4,3.4,1.1,4.8s1.8,2.5,3.1,3.3c1.3,0.8,2.8,1.1,4.5,1.1S1270.8,567.8,1272.1,567.1z"/>
</g>
<polyline class="st3" points="999.8,559.2 999.8,520.6 1032.7,520.6 "/>
<polyline class="st3" points="1294.5,559.2 1294.5,592.1 1256.7,592.1 1238.3,573.7 1222.9,589.1 "/>
<polyline class="st3" points="1032.7,533.9 1032.7,500.9 1094.2,500.9 1094.2,530.8 "/>
<rect x="1038.9" y="507.2" width="6.3" height="6.3"/>
<rect x="1049.6" y="507.2" width="6.3" height="6.3"/>
<rect x="1060.3" y="507.2" width="6.3" height="6.3"/>
<rect x="1071" y="507.2" width="6.3" height="6.3"/>
<rect x="1081.6" y="507.2" width="6.3" height="6.3"/>
<rect x="1038.9" y="517.4" width="6.3" height="6.3"/>
<rect x="1049.6" y="517.4" width="6.3" height="6.3"/>
<rect x="1060.3" y="517.4" width="6.3" height="6.3"/>
<rect x="1038.9" y="527.6" width="6.3" height="6.3"/>
<rect x="1049.6" y="527.6" width="6.3" height="6.3"/>
<rect x="1060.3" y="527.6" width="6.3" height="6.3"/>
<rect x="1071" y="517.4" width="6.3" height="6.3"/>
<polyline class="st3" points="1193.8,598.9 1213.2,579.5 1226.9,593.2 "/>
<polyline class="st3" points="1199,593.7 1199,612.4 1210.4,612.4 "/>
<g>
	<path class="st4" d="M1052.9,352c1.7,1.7,2.5,4.2,2.5,7.6v13.7h-3.2v-13.4c0-2.5-0.6-4.3-1.8-5.6c-1.2-1.3-2.9-1.9-5-1.9
		c-2.5,0-4.4,0.8-5.8,2.3c-1.4,1.5-2.1,3.6-2.1,6.3v12.4h-3.2v-13.4c0-2.5-0.6-4.3-1.8-5.6c-1.2-1.3-2.9-1.9-5.1-1.9
		c-2.4,0-4.4,0.8-5.8,2.3c-1.4,1.5-2.1,3.6-2.1,6.3v12.4h-3.2v-23.6h3.1v4.3c0.8-1.4,2-2.5,3.5-3.3c1.5-0.8,3.2-1.2,5.2-1.2
		c2,0,3.7,0.4,5.1,1.3c1.5,0.8,2.5,2.1,3.3,3.7c0.9-1.6,2.1-2.8,3.8-3.7c1.6-0.9,3.5-1.3,5.6-1.3
		C1048.9,349.4,1051.2,350.3,1052.9,352z"/>
	<path class="st4" d="M1067.7,371.9c-1.8-1-3.3-2.5-4.3-4.3c-1-1.8-1.6-3.9-1.6-6.2c0-2.3,0.5-4.4,1.6-6.2s2.5-3.3,4.3-4.3
		c1.8-1,3.9-1.5,6.2-1.5c2.3,0,4.3,0.5,6.2,1.5c1.8,1,3.3,2.4,4.3,4.3c1,1.8,1.6,3.9,1.6,6.2c0,2.3-0.5,4.4-1.6,6.2
		c-1,1.8-2.5,3.3-4.3,4.3s-3.9,1.6-6.2,1.6C1071.6,373.5,1069.6,372.9,1067.7,371.9z M1078.4,369.5c1.3-0.8,2.4-1.8,3.1-3.3
		c0.7-1.4,1.1-3,1.1-4.8s-0.4-3.4-1.1-4.8c-0.7-1.4-1.8-2.5-3.1-3.3c-1.3-0.8-2.8-1.1-4.5-1.1c-1.7,0-3.2,0.4-4.5,1.1
		c-1.3,0.8-2.4,1.8-3.1,3.3c-0.8,1.4-1.1,3-1.1,4.8s0.4,3.4,1.1,4.8c0.8,1.4,1.8,2.5,3.1,3.3c1.3,0.8,2.8,1.1,4.5,1.1
		C1075.6,370.6,1077.1,370.3,1078.4,369.5z"/>
	<path class="st4" d="M1086.1,381.8c-0.9-0.3-1.6-0.6-2.2-1.1l1.1-2.4c0.9,0.8,2.2,1.2,3.7,1.2c1.3,0,2.2-0.4,2.9-1.1
		c0.7-0.7,1-1.9,1-3.3v-25.4h3.2V375c0,2.2-0.6,4-1.8,5.3c-1.2,1.3-2.9,1.9-5.1,1.9C1087.9,382.2,1087,382.1,1086.1,381.8z
		 M1092.6,343.7c-0.4-0.4-0.7-1-0.7-1.6c0-0.6,0.2-1.1,0.7-1.6c0.4-0.4,1-0.7,1.7-0.7c0.7,0,1.2,0.2,1.7,0.7c0.4,0.4,0.7,1,0.7,1.6
		c0,0.7-0.2,1.2-0.7,1.7c-0.4,0.4-1,0.7-1.7,0.7C1093.6,344.4,1093,344.2,1092.6,343.7z"/>
	<path class="st4" d="M1125.3,362.4h-19.8c0.2,2.5,1.1,4.4,2.8,6c1.7,1.5,3.9,2.3,6.5,2.3c1.5,0,2.8-0.3,4-0.8
		c1.2-0.5,2.3-1.3,3.2-2.3l1.8,2.1c-1,1.3-2.4,2.2-3.9,2.9c-1.6,0.7-3.3,1-5.2,1c-2.4,0-4.6-0.5-6.4-1.6c-1.9-1-3.3-2.5-4.4-4.3
		c-1-1.8-1.6-3.9-1.6-6.2c0-2.3,0.5-4.4,1.5-6.2c1-1.8,2.4-3.3,4.1-4.3c1.8-1,3.7-1.5,5.9-1.5c2.2,0,4.2,0.5,5.9,1.5
		c1.7,1,3.1,2.4,4.1,4.2c1,1.8,1.5,3.9,1.5,6.2L1125.3,362.4z M1108.1,354.3c-1.5,1.5-2.4,3.3-2.6,5.7h16.8
		c-0.2-2.3-1.1-4.2-2.6-5.7c-1.5-1.5-3.5-2.2-5.8-2.2C1111.6,352.2,1109.7,352.9,1108.1,354.3z"/>
	<path class="st4" d="M1180.1,352c1.7,1.7,2.5,4.2,2.5,7.6v13.7h-3.2v-13.4c0-2.5-0.6-4.3-1.8-5.6c-1.2-1.3-2.9-1.9-5-1.9
		c-2.5,0-4.4,0.8-5.8,2.3c-1.4,1.5-2.1,3.6-2.1,6.3v12.4h-3.2v-13.4c0-2.5-0.6-4.3-1.8-5.6c-1.2-1.3-2.9-1.9-5.1-1.9
		c-2.4,0-4.4,0.8-5.8,2.3c-1.4,1.5-2.1,3.6-2.1,6.3v12.4h-3.2v-23.6h3.1v4.3c0.8-1.4,2-2.5,3.5-3.3c1.5-0.8,3.2-1.2,5.2-1.2
		c2,0,3.7,0.4,5.1,1.3c1.5,0.8,2.5,2.1,3.3,3.7c0.9-1.6,2.1-2.8,3.8-3.7c1.6-0.9,3.5-1.3,5.6-1.3
		C1176.1,349.4,1178.4,350.3,1180.1,352z"/>
	<path class="st4" d="M1212,362.4h-19.8c0.2,2.5,1.1,4.4,2.8,6c1.7,1.5,3.9,2.3,6.5,2.3c1.5,0,2.8-0.3,4-0.8
		c1.2-0.5,2.3-1.3,3.2-2.3l1.8,2.1c-1,1.3-2.4,2.2-3.9,2.9c-1.6,0.7-3.3,1-5.2,1c-2.4,0-4.6-0.5-6.4-1.6c-1.9-1-3.3-2.5-4.4-4.3
		c-1-1.8-1.6-3.9-1.6-6.2c0-2.3,0.5-4.4,1.5-6.2s2.4-3.3,4.1-4.3c1.8-1,3.7-1.5,5.9-1.5c2.2,0,4.1,0.5,5.9,1.5
		c1.7,1,3.1,2.4,4.1,4.2c1,1.8,1.5,3.9,1.5,6.2L1212,362.4z M1194.8,354.3c-1.5,1.5-2.4,3.3-2.6,5.7h16.8c-0.2-2.3-1.1-4.2-2.6-5.7
		c-1.5-1.5-3.5-2.2-5.8-2.2C1198.3,352.2,1196.4,352.9,1194.8,354.3z M1208,340.3l-5.8,5.6h-3.2l-5.8-5.6h3l4.4,3.7l4.4-3.7H1208z"
		/>
	<path class="st4" d="M1219.4,372.6c-1.8-0.6-3.1-1.3-4.1-2.1l1.4-2.5c1,0.8,2.2,1.4,3.7,1.9c1.5,0.5,3.1,0.7,4.7,0.7
		c2.2,0,3.8-0.3,4.8-1c1-0.7,1.6-1.6,1.6-2.9c0-0.9-0.3-1.6-0.9-2c-0.6-0.5-1.3-0.9-2.2-1.1c-0.9-0.3-2-0.5-3.5-0.7
		c-1.9-0.4-3.5-0.7-4.6-1.1c-1.2-0.4-2.2-1-3-1.9c-0.8-0.9-1.2-2.1-1.2-3.7c0-2,0.8-3.6,2.5-4.9c1.6-1.3,3.9-1.9,6.9-1.9
		c1.5,0,3.1,0.2,4.6,0.6s2.8,0.9,3.8,1.6l-1.4,2.6c-1.9-1.3-4.3-2-7-2c-2,0-3.6,0.4-4.6,1.1c-1,0.7-1.6,1.7-1.6,2.8
		c0,0.9,0.3,1.6,0.9,2.2c0.6,0.5,1.3,0.9,2.2,1.2c0.9,0.3,2.1,0.5,3.6,0.8c1.9,0.4,3.4,0.7,4.5,1.1c1.1,0.4,2.1,1,2.9,1.8
		c0.8,0.9,1.2,2.1,1.2,3.6c0,2.1-0.9,3.7-2.6,4.9c-1.7,1.2-4.1,1.8-7.2,1.8C1223,373.5,1221.1,373.2,1219.4,372.6z"/>
	<path class="st4" d="M1253,371.8c-0.6,0.5-1.3,1-2.2,1.2c-0.9,0.3-1.8,0.4-2.8,0.4c-2.2,0-3.9-0.6-5.1-1.8
		c-1.2-1.2-1.8-2.9-1.8-5.1v-14.3h-4.2v-2.7h4.2v-5.2h3.2v5.2h7.2v2.7h-7.2v14.1c0,1.4,0.4,2.5,1.1,3.2c0.7,0.7,1.7,1.1,3,1.1
		c0.7,0,1.3-0.1,1.9-0.3c0.6-0.2,1.1-0.5,1.6-0.9L1253,371.8z"/>
	<path class="st4" d="M1261.4,371.9c-1.8-1-3.3-2.5-4.3-4.3c-1-1.8-1.6-3.9-1.6-6.2c0-2.3,0.5-4.4,1.6-6.2s2.5-3.3,4.3-4.3
		c1.8-1,3.9-1.5,6.2-1.5s4.3,0.5,6.2,1.5c1.8,1,3.3,2.4,4.3,4.3c1,1.8,1.6,3.9,1.6,6.2c0,2.3-0.5,4.4-1.6,6.2
		c-1,1.8-2.5,3.3-4.3,4.3s-3.9,1.6-6.2,1.6S1263.2,372.9,1261.4,371.9z M1272.1,369.5c1.3-0.8,2.4-1.8,3.1-3.3
		c0.7-1.4,1.1-3,1.1-4.8s-0.4-3.4-1.1-4.8c-0.7-1.4-1.8-2.5-3.1-3.3c-1.3-0.8-2.8-1.1-4.5-1.1c-1.7,0-3.2,0.4-4.5,1.1
		c-1.3,0.8-2.4,1.8-3.1,3.3c-0.8,1.4-1.1,3-1.1,4.8s0.4,3.4,1.1,4.8c0.8,1.4,1.8,2.5,3.1,3.3c1.3,0.8,2.8,1.1,4.5,1.1
		C1269.3,370.6,1270.8,370.3,1272.1,369.5z"/>
</g>
<g>
	<polygon class="st4" points="1001.2,361.6 998.3,361.6 998.3,321.5 1032.7,321.5 1032.7,324.5 1001.2,324.5 	"/>
</g>
<g>
	<polygon class="st4" points="1296,396 1256,396 1238.3,378.3 1224,392.6 1221.9,390.5 1238.3,374.1 1257.3,393.1 1293,393.1 
		1293,361.6 1296,361.6 	"/>
</g>
<g>
	<polygon class="st4" points="1034.2,336.4 1031.2,336.4 1031.2,301.8 1095.7,301.8 1095.7,333.2 1092.7,333.2 1092.7,304.8 
		1034.2,304.8 	"/>
</g>
<g>
	<rect x="1038.9" y="309.7" class="st4" width="6.3" height="6.3"/>
</g>
<g>
	<rect x="1049.6" y="309.7" class="st4" width="6.3" height="6.3"/>
</g>
<g>
	<rect x="1060.3" y="309.7" class="st4" width="6.3" height="6.3"/>
</g>
<g>
	<rect x="1071" y="309.7" class="st4" width="6.3" height="6.3"/>
</g>
<g>
	<rect x="1081.6" y="309.7" class="st4" width="6.3" height="6.3"/>
</g>
<g>
	<rect x="1038.9" y="319.8" class="st4" width="6.3" height="6.3"/>
</g>
<g>
	<rect x="1049.6" y="319.8" class="st4" width="6.3" height="6.3"/>
</g>
<g>
	<rect x="1060.3" y="319.8" class="st4" width="6.3" height="6.3"/>
</g>
<g>
	<rect x="1038.9" y="330" class="st4" width="6.3" height="6.3"/>
</g>
<g>
	<rect x="1049.6" y="330" class="st4" width="6.3" height="6.3"/>
</g>
<g>
	<rect x="1060.3" y="330" class="st4" width="6.3" height="6.3"/>
</g>
<g>
	<rect x="1071" y="319.8" class="st4" width="6.3" height="6.3"/>
</g>
<g>
	<polygon class="st4" points="1194.8,402.4 1192.7,400.3 1213.2,379.8 1228,394.6 1225.9,396.7 1213.2,384 	"/>
</g>
<g>
	<polygon class="st4" points="1210.4,416.3 1197.5,416.3 1197.5,396.2 1200.5,396.2 1200.5,413.3 1210.4,413.3 	"/>
</g>
<g>
	<path d="M1052.9,746.3c1.7,1.7,2.5,4.2,2.5,7.5v13.7h-3.2v-13.4c0-2.5-0.6-4.3-1.8-5.6s-2.9-1.9-5-1.9c-2.5,0-4.4,0.8-5.8,2.3
		s-2.1,3.6-2.1,6.3v12.4h-3.2v-13.4c0-2.5-0.6-4.3-1.8-5.6s-2.9-1.9-5.1-1.9c-2.4,0-4.4,0.8-5.8,2.3s-2.1,3.6-2.1,6.3v12.4h-3.2
		v-23.6h3.1v4.3c0.8-1.4,2-2.5,3.5-3.3c1.5-0.8,3.2-1.2,5.2-1.2c2,0,3.7,0.4,5.1,1.3s2.5,2.1,3.3,3.7c0.9-1.6,2.1-2.8,3.8-3.7
		c1.6-0.9,3.5-1.3,5.6-1.3C1048.9,743.7,1051.2,744.6,1052.9,746.3z"/>
	<path d="M1067.7,766.2c-1.8-1-3.3-2.5-4.3-4.3c-1-1.8-1.6-3.9-1.6-6.2c0-2.3,0.5-4.4,1.6-6.2c1-1.8,2.5-3.2,4.3-4.3
		c1.8-1,3.9-1.5,6.2-1.5c2.3,0,4.3,0.5,6.2,1.5c1.8,1,3.3,2.4,4.3,4.3c1,1.8,1.6,3.9,1.6,6.2c0,2.3-0.5,4.4-1.6,6.2
		c-1,1.8-2.5,3.3-4.3,4.3c-1.8,1-3.9,1.6-6.2,1.6C1071.6,767.8,1069.6,767.3,1067.7,766.2z M1078.4,763.8c1.3-0.8,2.4-1.8,3.1-3.3
		c0.7-1.4,1.1-3,1.1-4.8s-0.4-3.4-1.1-4.8c-0.8-1.4-1.8-2.5-3.1-3.3c-1.3-0.8-2.8-1.1-4.5-1.1s-3.2,0.4-4.5,1.1
		c-1.3,0.8-2.4,1.9-3.1,3.3s-1.1,3-1.1,4.8s0.4,3.4,1.1,4.8s1.8,2.5,3.1,3.3c1.3,0.8,2.8,1.1,4.5,1.1S1077.1,764.6,1078.4,763.8z"/>
	<path d="M1086.1,776.1c-0.9-0.3-1.6-0.6-2.2-1.1l1.1-2.4c0.9,0.8,2.2,1.2,3.7,1.2c1.3,0,2.2-0.4,2.9-1.1c0.7-0.7,1-1.9,1-3.3v-25.4
		h3.2v25.4c0,2.2-0.6,4-1.8,5.3c-1.2,1.3-2.9,1.9-5.1,1.9C1087.9,776.5,1087,776.4,1086.1,776.1z M1092.6,738
		c-0.4-0.4-0.7-1-0.7-1.6c0-0.6,0.2-1.1,0.7-1.6c0.4-0.5,1-0.7,1.7-0.7c0.7,0,1.2,0.2,1.7,0.7c0.4,0.4,0.7,1,0.7,1.5
		c0,0.7-0.2,1.2-0.7,1.7c-0.5,0.4-1,0.7-1.7,0.7C1093.6,738.7,1093,738.5,1092.6,738z"/>
	<path d="M1125.3,756.7h-19.8c0.2,2.5,1.1,4.4,2.8,6c1.7,1.5,3.9,2.3,6.5,2.3c1.5,0,2.8-0.3,4-0.8s2.3-1.3,3.2-2.3l1.8,2.1
		c-1,1.3-2.4,2.2-3.9,2.9c-1.6,0.7-3.3,1-5.2,1c-2.4,0-4.6-0.5-6.4-1.6c-1.9-1-3.3-2.5-4.4-4.3c-1-1.8-1.6-3.9-1.6-6.2
		c0-2.3,0.5-4.4,1.5-6.2c1-1.8,2.4-3.2,4.1-4.3c1.8-1,3.7-1.5,5.9-1.5c2.2,0,4.1,0.5,5.9,1.5c1.7,1,3.1,2.4,4.1,4.2
		c1,1.8,1.5,3.9,1.5,6.2L1125.3,756.7z M1108.1,748.6c-1.5,1.5-2.4,3.3-2.6,5.7h16.8c-0.2-2.3-1.1-4.2-2.6-5.7
		c-1.5-1.5-3.5-2.2-5.8-2.2C1111.6,746.5,1109.7,747.2,1108.1,748.6z"/>
	<path d="M1180.1,746.3c1.7,1.7,2.5,4.2,2.5,7.5v13.7h-3.2v-13.4c0-2.5-0.6-4.3-1.8-5.6s-2.9-1.9-5-1.9c-2.5,0-4.4,0.8-5.8,2.3
		s-2.1,3.6-2.1,6.3v12.4h-3.2v-13.4c0-2.5-0.6-4.3-1.8-5.6s-2.9-1.9-5.1-1.9c-2.4,0-4.4,0.8-5.8,2.3s-2.1,3.6-2.1,6.3v12.4h-3.2
		v-23.6h3.1v4.3c0.8-1.4,2-2.5,3.5-3.3c1.5-0.8,3.2-1.2,5.2-1.2c2,0,3.7,0.4,5.1,1.3s2.5,2.1,3.3,3.7c0.9-1.6,2.1-2.8,3.8-3.7
		c1.6-0.9,3.5-1.3,5.6-1.3C1176.1,743.7,1178.4,744.6,1180.1,746.3z"/>
	<path d="M1212,756.7h-19.8c0.2,2.5,1.1,4.4,2.8,6c1.7,1.5,3.9,2.3,6.5,2.3c1.5,0,2.8-0.3,4-0.8s2.3-1.3,3.2-2.3l1.8,2.1
		c-1,1.3-2.4,2.2-3.9,2.9c-1.6,0.7-3.3,1-5.2,1c-2.4,0-4.6-0.5-6.4-1.6c-1.9-1-3.3-2.5-4.4-4.3c-1-1.8-1.6-3.9-1.6-6.2
		c0-2.3,0.5-4.4,1.5-6.2c1-1.8,2.4-3.2,4.1-4.3c1.8-1,3.7-1.5,5.9-1.5c2.2,0,4.1,0.5,5.9,1.5c1.7,1,3.1,2.4,4.1,4.2
		c1,1.8,1.5,3.9,1.5,6.2L1212,756.7z M1194.8,748.6c-1.5,1.5-2.4,3.3-2.6,5.7h16.8c-0.2-2.3-1.1-4.2-2.6-5.7
		c-1.5-1.5-3.5-2.2-5.8-2.2C1198.3,746.5,1196.4,747.2,1194.8,748.6z M1208,734.6l-5.8,5.6h-3.2l-5.8-5.6h3l4.4,3.7l4.4-3.7H1208z"
		/>
	<path d="M1219.4,766.9c-1.8-0.6-3.1-1.3-4.1-2.1l1.4-2.5c1,0.8,2.2,1.4,3.7,1.9c1.5,0.5,3.1,0.7,4.7,0.7c2.2,0,3.8-0.3,4.8-1
		c1-0.7,1.6-1.6,1.6-2.9c0-0.9-0.3-1.6-0.9-2s-1.3-0.9-2.2-1.1s-2-0.5-3.5-0.7c-1.9-0.4-3.5-0.7-4.6-1.1c-1.2-0.4-2.2-1-3-1.9
		c-0.8-0.9-1.2-2.1-1.2-3.7c0-2,0.8-3.6,2.5-4.9c1.6-1.3,3.9-1.9,6.9-1.9c1.5,0,3.1,0.2,4.6,0.6s2.8,0.9,3.8,1.6l-1.4,2.6
		c-1.9-1.3-4.3-2-7-2c-2,0-3.6,0.4-4.6,1.1s-1.6,1.7-1.6,2.8c0,0.9,0.3,1.6,0.9,2.2c0.6,0.5,1.3,0.9,2.2,1.2
		c0.9,0.3,2.1,0.5,3.6,0.8c1.9,0.4,3.4,0.7,4.5,1.1s2.1,1,2.9,1.8c0.8,0.9,1.2,2.1,1.2,3.6c0,2.1-0.9,3.7-2.6,4.9
		c-1.7,1.2-4.1,1.8-7.2,1.8C1223,767.8,1221.1,767.5,1219.4,766.9z"/>
	<path d="M1253,766.1c-0.6,0.5-1.3,1-2.2,1.2s-1.8,0.4-2.8,0.4c-2.2,0-3.9-0.6-5.1-1.8c-1.2-1.2-1.8-2.9-1.8-5.1v-14.3h-4.2v-2.7
		h4.2v-5.2h3.2v5.2h7.2v2.7h-7.2v14.1c0,1.4,0.4,2.5,1.1,3.2c0.7,0.7,1.7,1.1,3,1.1c0.7,0,1.3-0.1,1.9-0.3s1.1-0.5,1.6-0.9
		L1253,766.1z"/>
	<path d="M1261.4,766.2c-1.8-1-3.3-2.5-4.3-4.3c-1-1.8-1.6-3.9-1.6-6.2c0-2.3,0.5-4.4,1.6-6.2c1-1.8,2.5-3.2,4.3-4.3
		c1.8-1,3.9-1.5,6.2-1.5c2.3,0,4.3,0.5,6.2,1.5c1.8,1,3.3,2.4,4.3,4.3c1,1.8,1.6,3.9,1.6,6.2c0,2.3-0.5,4.4-1.6,6.2
		c-1,1.8-2.5,3.3-4.3,4.3c-1.8,1-3.9,1.6-6.2,1.6C1265.3,767.8,1263.2,767.3,1261.4,766.2z M1272.1,763.8c1.3-0.8,2.4-1.8,3.1-3.3
		c0.7-1.4,1.1-3,1.1-4.8s-0.4-3.4-1.1-4.8c-0.8-1.4-1.8-2.5-3.1-3.3c-1.3-0.8-2.8-1.1-4.5-1.1s-3.2,0.4-4.5,1.1
		c-1.3,0.8-2.4,1.9-3.1,3.3s-1.1,3-1.1,4.8s0.4,3.4,1.1,4.8s1.8,2.5,3.1,3.3c1.3,0.8,2.8,1.1,4.5,1.1S1270.8,764.6,1272.1,763.8z"/>
</g>
<polyline class="st5" points="999.8,755.9 999.8,717.3 1032.7,717.3 "/>
<polyline class="st5" points="1294.5,755.9 1294.5,788.9 1256.7,788.9 1238.3,770.5 1222.9,785.8 "/>
<polyline class="st5" points="1032.7,730.7 1032.7,697.6 1094.2,697.6 1094.2,727.5 "/>
<rect x="1038.9" y="704" class="st6" width="6.3" height="6.3"/>
<rect x="1049.6" y="704" class="st6" width="6.3" height="6.3"/>
<rect x="1060.3" y="704" class="st6" width="6.3" height="6.3"/>
<rect x="1071" y="704" class="st6" width="6.3" height="6.3"/>
<rect x="1081.6" y="704" class="st6" width="6.3" height="6.3"/>
<rect x="1038.9" y="714.1" class="st6" width="6.3" height="6.3"/>
<rect x="1049.6" y="714.1" class="st6" width="6.3" height="6.3"/>
<rect x="1060.3" y="714.1" class="st6" width="6.3" height="6.3"/>
<rect x="1038.9" y="724.3" class="st6" width="6.3" height="6.3"/>
<rect x="1049.6" y="724.3" class="st6" width="6.3" height="6.3"/>
<rect x="1060.3" y="724.3" class="st6" width="6.3" height="6.3"/>
<rect x="1071" y="714.1" class="st6" width="6.3" height="6.3"/>
<polyline class="st5" points="1193.8,795.7 1213.2,776.2 1226.9,789.9 "/>
<polyline class="st5" points="1199,790.5 1199,809.1 1210.4,809.1 "/>
</svg>
