<?xml version="1.0" encoding="iso-8859-1"?>
<!-- Generator: Adobe Illustrator 19.0.0, SVG Export Plug-In . SVG Version: 6.00 Build 0)  -->
<svg version="1.1" id="Layer_1" xmlns="http://www.w3.org/2000/svg" xmlns:xlink="http://www.w3.org/1999/xlink" x="0px" y="0px"
	 viewBox="0 0 473.931 473.931" style="enable-background:new 0 0 473.931 473.931;" xml:space="preserve">
<circle style="fill:#CBDB2B;" cx="236.966" cy="236.966" r="236.966"/>
<path style="fill:#C7D02D;" d="M404.518,69.38c92.545,92.549,92.552,242.593,0,335.142c-92.541,92.541-242.593,92.541-335.142,0
	L404.518,69.38z"/>
<path style="fill:#C0C130;" d="M472.899,258.638l-51.079-51.075l-131.545-43.842L182.699,178.22l-79.512,76.706l-7.873,59.247
	l159.058,159.055C369.925,464.82,462.463,373.615,472.899,258.638z"/>
<path style="fill:#FFFFFF;" d="M201.576,156.383c-1.003,0.153-1.882,0.393-2.885,0.576l-16.565-33.844l-49.111,5.613l20.015,41.182
	C49.477,212.925,95.359,314.356,95.359,314.356l158.015-45.75l-43.416-88.661c77.922-22.525,142.988,23.532,142.988,23.532
	l-53.634,14.574l-15.442-28.86c-14.529-2.705-31.072-3.528-48.699-0.576l36.523,74.652l157.775-45.713
	C429.468,217.55,372.253,127.156,201.576,156.383z M138.112,261.818c0,0-15.221-33.814,29.081-62.775l23.562,48.497L138.112,261.818
	z"/>
<g>
</g>
<g>
</g>
<g>
</g>
<g>
</g>
<g>
</g>
<g>
</g>
<g>
</g>
<g>
</g>
<g>
</g>
<g>
</g>
<g>
</g>
<g>
</g>
<g>
</g>
<g>
</g>
<g>
</g>
</svg>
