<?xml version="1.0" encoding="iso-8859-1"?>
<!-- Generator: Adobe Illustrator 19.0.0, SVG Export Plug-In . SVG Version: 6.00 Build 0)  -->
<svg version="1.1" id="Layer_1" xmlns="http://www.w3.org/2000/svg" xmlns:xlink="http://www.w3.org/1999/xlink" x="0px" y="0px"
	 viewBox="0 0 473.931 473.931" style="enable-background:new 0 0 473.931 473.931;" xml:space="preserve">
<circle style="fill:#1B92D0;" cx="236.966" cy="236.966" r="236.966"/>
<path style="fill:#1D8CB2;" d="M404.514,69.383c92.549,92.541,92.549,242.586,0,335.135
	c-92.541,92.549-242.593,92.549-335.134,0.007L404.514,69.383z"/>
<path style="fill:#1F7F98;" d="M472.723,260.965l-93.316-93.312l-7.484,7.484l-5.613-5.613l-16.217,16.213l-64.575-64.575
	l-46.286,38.237l108.242,108.242l-3.427,3.427l-111.71-111.714l-35.554,18.896l-8.726-8.726l-4.992,4.988l-38.903-38.899
	l-52.624,31.895l54.993,54.989l-1.175-0.696l-49.997,41.118l58.312,58.312l-4.602-0.935l146.351,146.352
	C390.505,442.516,462.657,360.904,472.723,260.965z"/>
<path style="fill:#FFFFFF;" d="M325.705,211.986l-86.457-52.662l54.517-45.137l86.513,53.238L325.705,211.986z M293.189,311.517
	l83.026-48.605l-49.934-42.241l-81.29,49.185L293.189,311.517z M226.526,269.856l-80.938-48.052l-50.293,41.107l83.041,48.605
	L226.526,269.856z M149.292,304.576v15.626l82.985,50.922v-96.642l-55.105,45.137L149.292,304.576z M322.21,304.576l-27.857,15.046
	l-55.105-45.141v96.642l82.962-50.922L322.21,304.576L322.21,304.576z M232.277,159.324l-54.525-45.133l-86.521,53.234
	l54.585,44.561L232.277,159.324z"/>
<g>
</g>
<g>
</g>
<g>
</g>
<g>
</g>
<g>
</g>
<g>
</g>
<g>
</g>
<g>
</g>
<g>
</g>
<g>
</g>
<g>
</g>
<g>
</g>
<g>
</g>
<g>
</g>
<g>
</g>
</svg>
