<?xml version="1.0" encoding="iso-8859-1"?>
<!-- Generator: Adobe Illustrator 19.0.0, SVG Export Plug-In . SVG Version: 6.00 Build 0)  -->
<svg version="1.1" id="Layer_1" xmlns="http://www.w3.org/2000/svg" xmlns:xlink="http://www.w3.org/1999/xlink" x="0px" y="0px"
	 viewBox="0 0 473.958 473.958" style="enable-background:new 0 0 473.958 473.958;" xml:space="preserve">
<path style="fill:#E1E1E1;" d="M0.001,236.981C0.001,106.094,106.099,0,236.974,0c130.883,0,236.981,106.094,236.981,236.981
	c0,130.872-106.098,236.977-236.981,236.977C106.099,473.958,0.001,367.852,0.001,236.981z"/>
<path style="fill:#D5D5D5;" d="M404.545,69.406c92.545,92.545,92.552,242.59,0,335.138c-92.541,92.541-242.593,92.549-335.142,0
	L404.545,69.406z"/>
<path style="fill:#CCCBCB;" d="M466.299,296.89l-111.28-111.276l-76.706,76.71l-72.964-72.968l-87.112,87.116l187.361,187.357
	C384.164,440.095,445.506,376.69,466.299,296.89z"/>
<path style="fill:#3A58A6;" d="M161.978,171.099c-34.271,0-62.053,27.551-62.053,61.541c0,33.975,27.783,61.515,62.053,61.515
	s62.05-27.539,62.05-61.515C224.028,198.65,196.249,171.099,161.978,171.099z"/>
<path style="fill:#E62D7E;" d="M376.815,232.64c0,33.975-27.775,61.515-62.053,61.515c-34.271,0-62.05-27.539-62.05-61.515
	c0-33.99,27.779-61.541,62.05-61.541C349.04,171.099,376.815,198.65,376.815,232.64z"/>
<g>
</g>
<g>
</g>
<g>
</g>
<g>
</g>
<g>
</g>
<g>
</g>
<g>
</g>
<g>
</g>
<g>
</g>
<g>
</g>
<g>
</g>
<g>
</g>
<g>
</g>
<g>
</g>
<g>
</g>
</svg>
