<?xml version="1.0" encoding="iso-8859-1"?>
<!-- Generator: Adobe Illustrator 19.0.0, SVG Export Plug-In . SVG Version: 6.00 Build 0)  -->
<svg version="1.1" id="Layer_1" xmlns="http://www.w3.org/2000/svg" xmlns:xlink="http://www.w3.org/1999/xlink" x="0px" y="0px"
	 viewBox="0 0 473.932 473.932" style="enable-background:new 0 0 473.932 473.932;" xml:space="preserve">
<circle style="fill:#F68D2C;" cx="236.966" cy="236.966" r="236.966"/>
<path style="fill:#E17F2C;" d="M404.525,69.373c92.541,92.541,92.545,242.586-0.004,335.134
	c-92.545,92.545-242.593,92.545-335.134,0.004L404.525,69.373z"/>
<path style="fill:#CD7028;" d="M473.928,236.955c0-0.206-0.015-0.408-0.015-0.617L335.643,98.072l-25.021,25.025l-18.709-18.709
	l-28.486,28.482l57.971,57.971l-22.963,22.963l-93.05-93.046l-54.211,54.207l30.87,30.87l-26.192,26.192l22.918,22.918
	l-27.603,27.603l35.079,35.079l-50.981,50.981l105.237,105.233C369.735,471.937,473.928,366.644,473.928,236.955z"/>
<path style="fill:#FFFFFF;" d="M312.231,96.732c6.425,0,12.898,0,19.349,0c6.698-0.427,17.021,18.945,14.196,27.218
	c-1.759,5.444-16.183,7.914-19.349,11.985c-5.482,6.975-3.42,28.609-3.42,43.146c0,38.342,0,75.61,0,116.376
	c0,6.518-0.849,19.528,1.164,21.556c2.065,2.062,9.5,0.733,12.471,1.699c6.844,2.2,15.128,15.427,9.725,24.4
	c-1.497,2.425-8.367,4.004-13.122,6.234c-11.248,5.358-30.593,11.51-46.626,10.211c-9.081-0.644-23.614-14.017-22.174-23.839
	c0.621-4.228,4.217-6.511,9.107-8.516c3.281-1.298,10.832-0.561,13.627-3.386c3.596-3.521,0.827-18.335,0.546-26.638
	c-0.108-5.066,0.116-8.599,0-14.799c0-4.434,0.449-12.277-0.546-13.657c-2.455-3.166-23.382-0.629-27.85,0
	c-21.208,3.128-32.542,4.651-50.08,10.211c-5.287,1.725-17.556,3.813-21.1,9.171c-3.641,5.583-0.703,24.348,0,32.894
	c0.348,3.955-1.126,11.51,0.629,14.163c2.32,3.697,11.906,2.028,14.136,2.821c5.512,1.92,13.571,10.383,12.584,18.769
	c-1.789,14.492-36.991,19.637-54.098,21.01c-6.589,0.483-9.025,0.651-13.654-0.505c-7.525-2.114-17.279-12.299-16.49-19.914
	c0.655-6.185,9.362-9.796,15.442-11.962c1.931-0.707,5.68-0.962,6.728-2.26c2.32-2.769,0.909-14.533,0-21.53
	c-2.514-20.845-3.05-46.072-3.39-67.565c-0.337-25.564-1.699-43.367-1.699-69.889c0-7.45,0.707-19.667-1.1-22.129
	c-2.148-2.668-9.018-2.193-13.092-3.94c-7.098-3.046-10.634-7.585-14.279-16.475c0-1.665,0-3.401,0-5.078
	c6.107-11.936,21.523-14.443,38.121-17.639c23.465-4.483,46.203-8.823,52.957,10.799c1.362,3.906,2.211,10.507,0,14.159
	c-4.097,6.784-19.936,5.321-23.33,10.851c-1.471,2.279-1.182,10.78-1.182,18.155c0,22.133-2.795,37.567-1.104,60.145
	c0.228,3.304,1.306,13.654,3.454,14.743c3.364,1.747,9.414-1.089,12.497-1.646c22.338-4.846,35.629-8.228,60.317-10.81
	c6.361-0.715,21.833-0.834,25.025-3.398c4.692-3.921,1.804-15.465,1.104-21.017c-1.953-16.984-1.729-29.059,0-45.429
	c0.703-6.23,2.687-18.256-0.546-21.594c-2.058-2.099-10.114-2.383-12.527-3.409c-8.595-3.6-18.885-12.471-15.326-24.991
	c0.905-3.353,6.058-6.058,9.616-7.891C281.725,100.863,296.882,99.849,312.231,96.732z"/>
<g>
</g>
<g>
</g>
<g>
</g>
<g>
</g>
<g>
</g>
<g>
</g>
<g>
</g>
<g>
</g>
<g>
</g>
<g>
</g>
<g>
</g>
<g>
</g>
<g>
</g>
<g>
</g>
<g>
</g>
</svg>
