<?xml version="1.0" encoding="iso-8859-1"?>
<!-- Generator: Adobe Illustrator 19.0.0, SVG Export Plug-In . SVG Version: 6.00 Build 0)  -->
<svg version="1.1" id="Layer_1" xmlns="http://www.w3.org/2000/svg" xmlns:xlink="http://www.w3.org/1999/xlink" x="0px" y="0px"
	 viewBox="0 0 473.935 473.935" style="enable-background:new 0 0 473.935 473.935;" xml:space="preserve">
<circle style="fill:#E1E1E1;" cx="236.968" cy="236.966" r="236.966"/>
<path style="fill:#D5D5D5;" d="M404.524,69.38c92.541,92.549,92.549,242.593,0,335.142c-92.541,92.541-242.597,92.545-335.142,0
	L404.524,69.38z"/>
<path style="fill:#CCCBCB;" d="M473.933,236.954c0-8.584-0.483-17.055-1.369-25.403l-93.971-93.967l0.067,16.022l-65.41-65.406
	l-20.901,20.901L169.354,64.92l199.432,199.443l-9.991,10.907L220.949,137.424l-24.842,14.918l-10.701,5.044L53.041,289.747
	l62.05,62.053l-17.773,17.773l101.215,101.215c12.509,2.039,25.335,3.147,38.42,3.147
	C367.832,473.935,473.933,367.83,473.933,236.954z"/>
<path style="fill:#C6C5C5;" d="M473.933,236.954c0-8.744-0.509-17.366-1.429-25.863L369.71,108.302l-35.704,35.704l79.512,79.512
	l-80.448,80.448l22.956,22.959l-99.677,99.677l-55.427-55.427l-42.993,42.993l58.854,58.854c6.653,0.558,13.366,0.913,20.168,0.913
	C367.832,473.935,473.933,367.83,473.933,236.954z"/>
<path style="fill:#E14E42;" d="M313.067,68.691c-24.647-11.218-50.858-16.976-77.911-16.976c-22.514,0-44.673,4.348-65.982,12.352
	c4.995,4.539,137.461,125.005,143.893,130.879C313.067,186.265,313.067,71.355,313.067,68.691z"/>
<path style="fill:#FDD14C;" d="M333.004,79.542c0,7.532,0,219.828,0,223.855c3.88,0,77.406,0,80.414,0
	c7.027-20.153,10.701-41.126,10.701-62.327C424.123,175.264,389.209,113.832,333.004,79.542z"/>
<path style="fill:#01A961;" d="M157.755,323.352c4.06,0,240.315,0,247.154,0c-28.957,59.868-87.232,100.186-152.51,106.281h-34.645
	c-20.699-1.934-40.793-7.289-59.999-15.917C157.755,411.002,157.755,327.281,157.755,323.352z"/>
<path style="fill:#5880C0;" d="M137.904,402.786c0-7.397,0-154.089,0-162.811c-6.309,5.759-75.902,69.136-78.076,71.108
	C74.972,349.136,102.623,381.424,137.904,402.786z"/>
<path style="fill:#9B4A9B;" d="M149.074,72.717C85.621,105.342,46.205,169.674,46.205,241.067c0,16.258,2.451,32.789,6.874,49.182
	c5.134-4.673,164.226-149.495,167.496-152.499C217.376,134.849,151.214,74.671,149.074,72.717z"/>
<g>
</g>
<g>
</g>
<g>
</g>
<g>
</g>
<g>
</g>
<g>
</g>
<g>
</g>
<g>
</g>
<g>
</g>
<g>
</g>
<g>
</g>
<g>
</g>
<g>
</g>
<g>
</g>
<g>
</g>
</svg>
