<?xml version="1.0" encoding="iso-8859-1"?>
<!-- Generator: Adobe Illustrator 19.0.0, SVG Export Plug-In . SVG Version: 6.00 Build 0)  -->
<svg version="1.1" id="Layer_1" xmlns="http://www.w3.org/2000/svg" xmlns:xlink="http://www.w3.org/1999/xlink" x="0px" y="0px"
	 viewBox="0 0 474.888 474.888" style="enable-background:new 0 0 474.888 474.888;" xml:space="preserve">
<circle style="fill:#D4E5F6;" cx="236.967" cy="236.971" r="236.967"/>
<path style="fill:#C7D8E5;" d="M405.483,70.341c92.542,92.542,92.542,242.588-0.007,335.137
	c-92.542,92.542-242.595,92.542-335.137,0L405.483,70.341z"/>
<path style="fill:#B5CAD7;" d="M344.02,119.812l-8.666,8.666l-14.279-14.279l-30.87,30.87l-20.58-20.58l-12.629,12.629l-3.274-3.274
	l-16.344,16.34l3.274,3.274l-11.693,11.693l6.14,6.14l-75.333,33.242l-12.688-12.692l-27.977,3.772l-17.773,20.58l-4.737,26.133
	l1.639,1.631l-0.176,0.172l21.134,21.137l9.209,44.411l158.88,158.88c102.791-22.23,180.762-111.09,186.345-219.142L344.02,119.812z
	"/>
<path style="fill:#4E4E4E;" d="M280.395,285.898c-1.456-0.943-3.143-1.512-4.924-1.512c-1.433,0-2.93,0.408-4.262,1.291l0,0
	c-12.561,7.502-27.341,11.611-42.017,11.611c-11.005,0-21.946-2.32-31.865-7.192l-0.045-0.03l-0.052-0.015
	c-1.489-0.614-3.195-1.916-5.051-3.151c-0.95-0.614-1.938-1.216-3.027-1.665c-1.081-0.46-2.279-0.782-3.566-0.782
	c-1.059,0-2.178,0.24-3.274,0.737c-0.06,0.022-0.109,0.045-0.168,0.067h0.007c-1.725,0.662-3.076,1.867-3.948,3.304
	c-0.906,1.474-1.351,3.188-1.351,4.898c0,1.542,0.359,3.083,1.119,4.486c0.715,1.325,1.819,2.485,3.259,3.263
	c14.17,9.564,30.855,13.886,47.607,13.875c15.098,0,30.286-3.502,43.813-9.86l0.075-0.049l0.067-0.034
	c1.792-1.059,4.157-2.002,6.387-3.383c1.104-0.703,2.185-1.515,3.113-2.578c0.928-1.051,1.673-2.346,2.092-3.888l0,0
	c0.176-0.681,0.262-1.343,0.262-1.998c0-1.261-0.307-2.451-0.819-3.525C283.063,288.166,281.835,286.841,280.395,285.898z
	 M372.764,218.292v0.026c0.045,0.621,0.06,1.235,0.06,1.856c0,6.907-2.215,13.549-5.92,19.184
	c-3.442,5.268-8.206,9.687-13.68,12.677c0.352,2.75,0.554,5.523,0.554,8.284c-0.007,14.874-5.137,29.497-14.069,41.212v0.007h-0.022
	c-16.501,21.961-41.856,34.911-67.453,41.444h-0.008l-0.022,0.015c-13.643,3.311-27.727,5.007-41.796,5.007
	c-20.973,0-41.942-3.787-61.5-11.626l-0.007-0.022h-0.015c-20.28-8.344-39.603-21.639-51.457-41.104
	c-6.372-10.387-9.875-22.57-9.875-34.821c0-2.769,0.191-5.538,0.554-8.288c-5.336-3.005-9.961-7.263-13.388-12.355
	c-3.667-5.463-5.987-11.865-6.286-18.634v-0.026v-0.022v-0.06c0.007-9.478,4.123-18.462,10.526-25.074
	c6.402-6.623,15.136-10.948,24.512-10.948c0.131,0,0.254,0,0.393,0c0.973-0.067,1.972-0.109,2.967-0.109
	c4.707,0,9.429,0.767,13.908,2.485l0.022,0.015l0.03,0.007c3.828,1.616,7.622,3.558,11.012,6.249
	c1.096-0.572,2.294-1.22,3.648-1.732c20.535-12.165,44.404-16.857,67.674-18.208c0.198-11.525,1.616-23.588,7.237-34.148
	c4.685-8.771,12.804-15.607,22.488-17.972l0.03-0.019l0.052-0.004c3.682-0.715,7.405-1.04,11.094-1.04
	c9.83,0,19.543,2.327,28.632,5.961c4.019-6.073,9.77-10.818,16.509-13.47l0.067-0.037l0.06-0.026
	c3.955-1.231,8.135-1.953,12.329-1.953c4.423,0,8.879,0.812,13.059,2.675v-0.019c0.007,0.015,0.007,0.015,0.007,0.015
	c0.03,0.011,0.06,0.03,0.086,0.03c5.987,2.305,11.05,6.571,14.645,11.869c3.596,5.321,5.714,11.693,5.714,18.249
	c0,1.205-0.067,2.417-0.213,3.633l-0.007,0.022c0,0.015,0,0.045-0.008,0.064c-0.703,8.468-4.992,15.899-11.064,21.197
	c-6.11,5.321-14.024,8.535-22.144,8.535c-1.302,0-2.616-0.075-3.925-0.247c-8.052-0.617-15.566-4.509-21.085-10.312
	c-5.534-5.785-9.108-13.519-9.108-21.867c0-0.408,0.045-0.819,0.06-1.22c-7.562-3.368-15.596-6.159-23.57-6.155
	c-1.156,0-2.316,0.064-3.465,0.183h-0.015c-5.972,0.569-11.525,4.333-14.223,9.747v0.007v0.022
	c-4.079,7.951-4.898,17.253-5.021,26.488c22.903,1.493,45.938,6.99,66.147,18.604h0.03l0.292,0.168
	c0.382,0.228,1.089,0.621,1.732,0.958c1.388-1.126,2.859-2.279,4.531-3.285c6.125-4.082,13.381-6.103,20.64-6.103
	c3.222,0,6.455,0.408,9.583,1.209h0.015l0.123,0.041c0.052,0.004,0.079,0.019,0.123,0.019v0.007
	c7.39,1.878,14.084,6.133,19.117,11.854c5.029,5.736,8.419,12.988,9.078,20.864v0.015H372.764z M305.3,143.34
	c0,0.311,0.007,0.629,0.037,0.95v0.019v0.037c0.153,3.978,2.024,7.682,4.883,10.417c2.874,2.735,6.679,4.434,10.544,4.445h0.045
	h0.052c0.277,0.022,0.561,0.022,0.834,0.022c3.903,0.007,7.768-1.676,10.679-4.4c2.907-2.739,4.831-6.47,4.984-10.481l0.007-0.015
	v-0.03c0.03-0.303,0.037-0.599,0.037-0.913c0-4.123-1.931-8.06-4.954-10.978c-3.012-2.911-7.068-4.718-11.064-4.715
	c-1.295,0-2.567,0.183-3.817,0.569l-0.045,0.004l-0.037,0.019c-3.297,0.857-6.38,2.885-8.602,5.583
	C306.654,136.571,305.3,139.886,305.3,143.34z M136.25,204.724c-3.061-1.422-6.226-2.44-9.354-2.425
	c-0.528,0-1.051,0.034-1.579,0.086h-0.075l-0.075,0.011c-4.494,0.127-9.033,2.084-12.43,5.224
	c-3.405,3.128-5.665,7.353-5.833,12.007v0.052l-0.007,0.037c-0.03,0.374-0.045,0.745-0.045,1.111c0,2.874,0.883,5.65,2.376,8.172
	c1.104,1.878,2.559,3.6,4.195,5.093C118.678,222.595,126.88,212.836,136.25,204.724z M335.762,260.963
	c0-10.245-3.697-20.535-9.684-28.83c-11.94-16.606-30.454-27.435-49.71-33.47l-0.138-0.049c-3.697-1.138-7.431-2.137-11.195-3.001
	c-11.255-2.559-22.795-3.839-34.32-3.839c-15.487,0-30.963,2.29-45.792,6.866c-19.255,6.11-37.826,16.868-49.74,33.53v0.011
	c-6.035,8.322-9.575,18.645-9.575,28.935c0,3.779,0.483,7.562,1.478,11.255l0.015,0.004c2.163,8.266,6.41,15.648,11.891,22.08
	c5.489,6.44,12.213,11.94,19.293,16.423c1.564,0.965,3.143,1.893,4.752,2.799c20.557,11.472,44.228,16.509,67.734,16.509
	c3.978,0,7.974-0.138,11.921-0.423c23.671-1.957,47.438-8.947,66.652-23.218l0.007-0.015c6.11-4.524,11.772-9.991,16.262-16.221
	c4.494-6.223,7.79-13.186,9.253-20.744v-0.026l0.007-0.007C335.47,266.699,335.762,263.837,335.762,260.963z M354.433,220.181
	c0-2.492-0.569-4.965-1.811-7.27l-0.037-0.034l-0.007-0.034c-1.665-3.431-4.284-6.021-7.439-7.79
	c-3.151-1.777-6.84-2.683-10.544-2.683c-3.349,0-6.679,0.752-9.631,2.238c9.399,8.165,17.643,17.968,22.978,29.511
	c1.71-1.489,3.173-3.319,4.269-5.351C353.629,226.108,354.433,223.126,354.433,220.181z"/>
<g>
	<path style="fill:#EF4923;" d="M291.758,240.091c0.737,1.875,1.074,3.817,1.074,5.736c0,3.88-1.343,7.644-3.588,10.713
		c-2.223,3.035-5.373,5.392-9.07,6.432h0.007c-0.037,0.015-0.067,0.015-0.086,0.022c-0.007,0-0.03,0.011-0.045,0.011
		c-1.74,0.595-3.514,0.872-5.276,0.872c-4.135,0-8.198-1.486-11.446-4.026c-3.222-2.533-5.658-6.166-6.425-10.481h-0.007
		c0-0.015,0-0.03-0.007-0.045c0-0.007,0-0.022-0.007-0.045h0.007c-0.24-1.111-0.359-2.223-0.359-3.319
		c0-3.734,1.265-7.319,3.368-10.282c2.092-2.941,5.044-5.283,8.494-6.485c0.007,0,0.022-0.007,0.022-0.007
		c0.015,0,0.015-0.011,0.03-0.011c1.957-0.73,4.019-1.085,6.058-1.085c3.712,0,7.375,1.123,10.458,3.184
		c3.046,2.024,5.527,4.999,6.769,8.688c0.007,0.026,0.007,0.052,0.022,0.071c0,0.026,0.007,0.037,0.022,0.056L291.758,240.091
		L291.758,240.091z"/>
	<path style="fill:#EF4923;" d="M180.915,262.92c0.022,0,0.06,0.007,0.086,0.022c1.804,0.659,3.674,0.98,5.519,0.98
		c4.602,0,9.078-1.878,12.468-4.954c3.383-3.076,5.691-7.439,5.691-12.408c0-0.131,0-0.262,0-0.412
		c0.007-0.225,0.015-0.471,0.015-0.711c0-4.932-2.279-9.31-5.635-12.408c-3.36-3.098-7.828-4.992-12.445-4.992
		c-1.235,0-2.492,0.146-3.727,0.43c-0.015,0-0.03,0.007-0.045,0.007c0,0-0.015,0-0.022,0c-6.118,1.28-11.48,5.818-13.463,12.067l0,0
		v0.007c0,0.007-0.007,0.022-0.007,0.022c-0.569,1.71-0.834,3.48-0.834,5.224c0,3.828,1.265,7.555,3.442,10.623
		c2.163,3.02,5.224,5.384,8.894,6.488C180.878,262.898,180.893,262.905,180.915,262.92z"/>
</g>
<g>
</g>
<g>
</g>
<g>
</g>
<g>
</g>
<g>
</g>
<g>
</g>
<g>
</g>
<g>
</g>
<g>
</g>
<g>
</g>
<g>
</g>
<g>
</g>
<g>
</g>
<g>
</g>
<g>
</g>
</svg>
