<?xml version="1.0" encoding="iso-8859-1"?>
<!-- Generator: Adobe Illustrator 19.0.0, SVG Export Plug-In . SVG Version: 6.00 Build 0)  -->
<svg version="1.1" id="Layer_1" xmlns="http://www.w3.org/2000/svg" xmlns:xlink="http://www.w3.org/1999/xlink" x="0px" y="0px"
	 viewBox="0 0 473.935 473.935" style="enable-background:new 0 0 473.935 473.935;" xml:space="preserve">
<circle style="fill:#EF4E23;" cx="236.967" cy="236.967" r="236.967"/>
<path style="fill:#E74525;" d="M404.521,69.377c92.542,92.549,92.549,242.595,0,335.144c-92.542,92.542-242.599,92.546-335.144,0
	L404.521,69.377z"/>
<path style="fill:#DC4127;" d="M465.108,300.989l-75.509-75.506l-1.051,1.051L285.296,123.288l-29.036,29.033l-37.392,2.518
	l-0.333,35.206l-41.59,41.59l40.46,40.46l-13.489,13.493l-59.869-59.869l-33.983,33.979l26.66,26.66l-25.257,25.257l159.816,159.815
	C364.547,457.89,440.158,390.048,465.108,300.989z"/>
<path style="fill:#D23D28;" d="M465.127,300.918l-75.558-75.55l-67.973,67.977l-11.693-11.693l-32.662,32.666l107.677,107.681
	C423.099,391.432,451.585,349.311,465.127,300.918z"/>
<path style="fill:#FFFFFF;" d="M252.597,208.627l20.198,9.407l30.103-8.984v-20.894c-1.066-35.551-30.125-64.074-65.942-64.074
	c-35.685,0-64.677,28.31-65.942,63.689v95.442c0,8.644-7.008,15.644-15.648,15.644c-8.64,0-15.641-7.001-15.641-15.644v-40.449
	h-50.57c0,0,0,40.516,0,40.988c0,36.497,29.583,66.08,66.08,66.08c36.176,0,65.496-29.077,66.001-65.126l0.075-94.271
	c0-8.64,7.008-15.644,15.648-15.644c8.64,0,15.641,7.005,15.641,15.644v18.193H252.597z M334.183,242.76v42.335
	c0,8.64-7.001,15.644-15.641,15.644s-15.648-7.005-15.648-15.644v-41.523l-30.103,8.984l-20.198-9.411v41.193
	c0.322,36.217,29.788,65.489,66.08,65.489c36.497,0,66.08-29.583,66.08-66.08c0-0.471,0-40.988,0-40.988L334.183,242.76
	L334.183,242.76z"/>
<g>
</g>
<g>
</g>
<g>
</g>
<g>
</g>
<g>
</g>
<g>
</g>
<g>
</g>
<g>
</g>
<g>
</g>
<g>
</g>
<g>
</g>
<g>
</g>
<g>
</g>
<g>
</g>
<g>
</g>
</svg>
